<svg width="46" height="34" viewBox="0 0 46 34" fill="none" xmlns="http://www.w3.org/2000/svg">
<path fill-rule="evenodd" clip-rule="evenodd" d="M20.5219 0.553237C21.2704 1.2909 21.2704 2.48687 20.5219 3.22454L14.2106 9.44444H31.7894L25.4781 3.22454C24.7296 2.48687 24.7296 1.2909 25.4781 0.553237C26.2265 -0.184412 27.4401 -0.184412 28.1886 0.553237L37.2105 9.44444H44.0833C45.1419 9.44444 46 10.2901 46 11.3333C46 12.3765 45.1419 13.2222 44.0833 13.2222H43.7663L40.7915 29.3471C40.2943 32.0414 37.913 34 35.134 34H10.8659C8.08697 34 5.70572 32.0414 5.20862 29.3471L2.23372 13.2222H1.91667C0.85812 13.2222 0 12.3765 0 11.3333C0 10.2901 0.85812 9.44444 1.91667 9.44444H8.78943L17.8114 0.553237C18.5599 -0.184412 19.7735 -0.184412 20.5219 0.553237ZM6.1299 13.2222L8.98012 28.6713C9.14583 29.5694 9.93958 30.2222 10.8659 30.2222H35.134C36.0604 30.2222 36.8542 29.5694 37.0198 28.6713L39.8701 13.2222H6.1299ZM14.0599 17.0257C15.104 16.8542 16.0916 17.5493 16.2656 18.5784L17.2239 24.245C17.3979 25.2741 16.6926 26.2472 15.6484 26.4188C14.6043 26.5903 13.6168 25.8952 13.4428 24.8661L12.4844 19.1994C12.3104 18.1704 13.0158 17.1972 14.0599 17.0257ZM31.9401 17.0257C32.9843 17.1972 33.6896 18.1704 33.5156 19.1994L32.5573 24.8661C32.3832 25.8952 31.3958 26.5903 30.3516 26.4188C29.3074 26.2472 28.602 25.2741 28.7761 24.245L29.7344 18.5784C29.9084 17.5493 30.8959 16.8542 31.9401 17.0257ZM23 17C24.0586 17 24.9167 17.8457 24.9167 18.8889V24.5556C24.9167 25.5988 24.0586 26.4444 23 26.4444C21.9414 26.4444 21.0833 25.5988 21.0833 24.5556V18.8889C21.0833 17.8457 21.9414 17 23 17Z" fill="#F5F5F5"/>
</svg>
