<svg width="24" height="24" viewBox="0 0 24 24" fill="none" xmlns="http://www.w3.org/2000/svg">
<path fill-rule="evenodd" clip-rule="evenodd" d="M21.0469 19.6507H1.3125C0.5625 19.6507 0 19.0218 0 18.1834V16.8734H22.3594V18.1834C22.3594 19.0218 21.7969 19.6507 21.0469 19.6507ZM0 16.1397V3.30131C0 2.46288 0.5625 1.83406 1.3125 1.83406H12.7031V7.54585C12.7031 8.64629 13.5 9.53712 14.4844 9.53712H14.5781L14.625 10.8996C14.625 11.2664 14.8594 11.6332 15.1875 11.8428C15.3281 11.8952 15.4688 11.9476 15.6094 11.9476C15.7969 11.9476 15.9844 11.8952 16.125 11.7904L19.1719 9.53712H22.3594V16.1397H11.8125V13.7293C11.8125 12.524 10.875 11.5808 9.70312 11.5808H7.96875V11.0044C8.90625 10.69 9.60938 9.69432 9.60938 8.48908V6.34061C9.60938 4.92576 8.57812 3.77293 7.26562 3.77293H6C4.73438 3.77293 3.70312 4.92576 3.70312 6.34061V8.48908C3.70312 9.69432 4.40625 10.69 5.34375 11.0044V11.5808H3.60938C2.4375 11.5808 1.45312 12.524 1.45312 13.7293V16.1397H0ZM7.6875 10.3231C7.64062 10.3231 7.64062 10.3231 7.64062 10.3231C7.59375 10.3231 7.54688 10.3231 7.5 10.3755C7.40625 10.3755 7.35938 10.3755 7.26562 10.3755H6C5.95312 10.3755 5.85938 10.3755 5.8125 10.3755C5.76562 10.3231 5.71875 10.3231 5.67188 10.3231H5.625C4.92188 10.1135 4.35938 9.37991 4.35938 8.48908V6.70742H6.84375C6.9375 6.70742 7.03125 6.65502 7.07812 6.60262L7.26562 6.39301L7.5 6.60262C7.59375 6.65502 7.64062 6.70742 7.73438 6.70742H8.95312V8.48908C8.95312 9.37991 8.39062 10.1135 7.6875 10.3231ZM4.40625 5.9738C4.54688 5.13537 5.20312 4.50655 6 4.50655H7.26562C8.0625 4.50655 8.76562 5.13537 8.90625 5.9738H7.875L7.5 5.60699C7.35938 5.44978 7.17188 5.50218 7.03125 5.60699L6.70312 5.9738H4.40625ZM7.3125 11.1092V12.6812C7.3125 12.9432 7.07812 13.1528 6.84375 13.1528H6.46875C6.23438 13.1528 6 12.9432 6 12.6812V11.1092H7.3125ZM7.96875 12.3144H9.70312C10.5 12.3144 11.1562 12.9432 11.1562 13.7293V16.1397H2.10938V13.7293C2.10938 12.9432 2.8125 12.3144 3.60938 12.3144H5.34375V12.6812C5.34375 13.3624 5.85938 13.8865 6.46875 13.8865H6.84375C7.45312 13.8865 7.96875 13.3624 7.96875 12.6812V12.3144Z" fill="#6D7992"/>
<path fill-rule="evenodd" clip-rule="evenodd" d="M13.7344 24C12.9375 24 8.85938 24 8.625 24H8.57812C8.39062 23.9476 8.29688 23.7904 8.29688 23.5808L8.71875 20.3843H13.6406L14.0625 23.5808C14.1094 23.7904 13.9688 23.9476 13.7812 24H13.7344Z" fill="#6D7992"/>
<path fill-rule="evenodd" clip-rule="evenodd" d="M15.9844 24H6.375C6.1875 24 6.04688 23.8428 6.04688 23.6332C6.04688 23.4236 6.1875 23.2664 6.375 23.2664H15.9844C16.1719 23.2664 16.3125 23.4236 16.3125 23.6332C16.3125 23.8428 16.1719 24 15.9844 24Z" fill="#6D7992"/>
<path fill-rule="evenodd" clip-rule="evenodd" d="M15.6094 11.214C15.5625 11.214 15.5156 11.214 15.4688 11.1616C15.3281 11.1092 15.2812 11.0044 15.2812 10.8472L15.2344 8.80349H14.4844C13.8281 8.80349 13.3594 8.22707 13.3594 7.54585V1.25764C13.3594 0.524017 13.8281 0 14.4844 0H22.875C23.4844 0 24 0.576419 24 1.25764V7.54585C24 8.22707 23.4844 8.80349 22.875 8.80349H18.9844L15.7969 11.1616C15.75 11.214 15.6562 11.214 15.6094 11.214ZM21.6562 6.0262H15.6562C15.4688 6.0262 15.3281 5.869 15.3281 5.65939C15.3281 5.44978 15.4688 5.29258 15.6562 5.29258H21.6562C21.8438 5.29258 21.9844 5.44978 21.9844 5.65939C21.9844 5.869 21.8438 6.0262 21.6562 6.0262ZM21.6562 3.45852H15.6562C15.4688 3.45852 15.3281 3.30131 15.3281 3.0917C15.3281 2.8821 15.4688 2.72489 15.6562 2.72489H21.6562C21.8438 2.72489 21.9844 2.8821 21.9844 3.0917C21.9844 3.30131 21.8438 3.45852 21.6562 3.45852Z" fill="#6D7992"/>
</svg>
