<svg width="24" height="24" viewBox="0 0 24 24" fill="none" xmlns="http://www.w3.org/2000/svg">
<path d="M21.7143 3.66069V13.8003C21.7143 16.1164 19.9194 18.0004 17.7143 18.0004H10.088L7.80229 20.4005H14.3851L17.4777 23.6478C17.6971 23.8776 17.988 24 18.2846 24C18.432 24 18.5811 23.97 18.7234 23.9082C19.152 23.7216 19.4286 23.2866 19.4286 22.7994V20.4005H21.1429C22.7183 20.4005 24 19.0547 24 17.4004V6.60016C24 5.15173 23.0166 3.9397 21.7143 3.66069Z" fill="#6D7992"/>
<path d="M17.7143 0H2.85714C1.28171 0 0 1.34583 0 3.00007V13.8003C0 15.4546 1.28171 16.8004 2.85714 16.8004H4.57143V19.1993C4.57143 19.6865 4.848 20.1215 5.27657 20.3081C5.41886 20.3699 5.568 20.3999 5.71543 20.3999C6.01257 20.3999 6.30286 20.2775 6.52229 20.0477L9.61486 16.8004H17.7143C19.2897 16.8004 20.5714 15.4546 20.5714 13.8003V3.00007C20.5714 1.34583 19.2897 0 17.7143 0ZM10.2857 13.2003C9.97029 13.2003 9.71429 12.9315 9.71429 12.6003C9.71429 12.2691 9.97029 12.0003 10.2857 12.0003C10.6011 12.0003 10.8571 12.2691 10.8571 12.6003C10.8571 12.9315 10.6011 13.2003 10.2857 13.2003ZM11.5286 8.66722C11.108 8.91022 10.8571 9.31043 10.8571 9.73824V10.2003C10.8571 10.5315 10.6017 10.8003 10.2857 10.8003C9.96971 10.8003 9.71429 10.5315 9.71429 10.2003V9.73824C9.71429 8.86642 10.1857 8.0732 10.976 7.61659C11.5389 7.28958 11.8211 6.61517 11.6771 5.93955C11.5606 5.40494 11.1389 4.96152 10.6274 4.83912C10.2223 4.74132 9.81543 4.82052 9.48286 5.06053C9.15257 5.29873 8.93086 5.67254 8.87486 6.08535C8.82971 6.41296 8.54743 6.64277 8.22743 6.59416C7.91543 6.54676 7.69829 6.24316 7.74286 5.91495C7.84514 5.17093 8.24286 4.49891 8.83543 4.0717C9.43429 3.64029 10.1623 3.49869 10.8811 3.66909C11.8257 3.8959 12.576 4.68312 12.7914 5.67494C13.0486 6.87737 12.5411 8.0786 11.5286 8.66722Z" fill="#6D7992"/>
</svg>
