<svg width="29" height="18" viewBox="0 0 29 18" fill="none" xmlns="http://www.w3.org/2000/svg">
<mask id="mask0_241_1089" style="mask-type:alpha" maskUnits="userSpaceOnUse" x="0" y="0" width="29" height="18">
<rect x="0.5" y="0.5" width="28" height="17" fill="#F5F5F5"/>
</mask>
<g mask="url(#mask0_241_1089)">
<path d="M20.9 8.7C20.7 8.9 20.6 9.2 20.6 9.4C20.6 9.6 20.7 9.9 20.9 10.1C21.3 10.5 21.9 10.5 22.3 10.1L24.4 8C24.8 7.6 24.8 7 24.4 6.6C24 6.2 23.4 6.2 23 6.6L20.9 8.7Z" fill="#F5F5F5"/>
<path d="M14.5 7.5C15.1 7.5 15.5 7.1 15.5 6.5L15.5 3.5C15.5 2.9 15.1 2.5 14.5 2.5C13.9 2.5 13.5 2.9 13.5 3.5L13.5 6.5C13.5 7.1 13.9 7.5 14.5 7.5Z" fill="#F5F5F5"/>
<path d="M8.1 8.7L6 6.6C5.6 6.2 5 6.2 4.6 6.6C4.4 6.8 4.3 7.1 4.3 7.3C4.3 7.5 4.4 7.8 4.6 8L6.7 10.1C7.1 10.5 7.7 10.5 8.1 10.1C8.5 9.7 8.5 9.1 8.1 8.7Z" fill="#F5F5F5"/>
<path d="M14.3 29.9C14.5 29.5 14.4 29 14 28.7C13 27.9 12.5 26.7 12.5 25.5C12.5 23.2 14.4 21.2 16.8 21.2C18.4 21.2 19.8 22.1 20.6 23.5C20.8 23.9 21.3 24.1 21.7 24C22.1 23.9 22.5 23.5 22.5 23C22.5 22.9 22.5 22.7 22.5 22.6C22.5 20.7 21.8 18.9 20.7 17.5L27.5 17.5C28.1 17.5 28.5 17.1 28.5 16.5C28.5 15.9 28.1 15.5 27.5 15.5L22.4 15.5C21.9 11.6 18.5 8.5 14.5 8.5C10.5 8.5 7.1 11.6 6.6 15.5L1.5 15.5C0.899999 15.5 0.499999 15.9 0.499999 16.5C0.499999 17.1 0.899999 17.5 1.5 17.5L8.3 17.5C7.1 18.9 6.5 20.7 6.5 22.6C6.5 26.6 9.4 29.9 13.3 30.5C13.7 30.6 14.2 30.3 14.3 29.9ZM10.5 17.5C9.9 17.5 9.5 17.1 9.5 16.5C9.5 15.9 9.9 15.5 10.5 15.5L18.5 15.5C19.1 15.5 19.5 15.9 19.5 16.5C19.5 17.1 19.1 17.5 18.5 17.5L10.5 17.5Z" fill="#F5F5F5"/>
</g>
</svg>
