<svg width="33" height="32" viewBox="0 0 33 32" fill="none" xmlns="http://www.w3.org/2000/svg">
<path d="M30.1908 2.45206C29.4396 1.67746 28.5402 1.06175 27.5463 0.641485C26.5524 0.221222 25.4842 0.00498892 24.4051 0.00561987H24.3396C22.0736 0.00326867 19.8981 0.89526 18.286 2.48777L10.9526 9.839C9.63002 11.1734 8.80055 12.9178 8.60043 14.7859C8.40031 16.654 8.8415 18.5346 9.85145 20.1188C10.0155 20.3759 10.2357 20.5926 10.4955 20.7524C10.7553 20.9122 11.048 21.011 11.3515 21.0414C11.4267 21.0473 11.5024 21.0473 11.5776 21.0414C12.1253 21.0443 12.6517 20.8304 13.0419 20.4462C13.3739 20.1171 13.5832 19.6843 13.6352 19.2198C13.6872 18.7552 13.5787 18.2869 13.3276 17.8926C12.8219 17.1025 12.6006 16.1637 12.7001 15.2309C12.7997 14.2981 13.2142 13.4272 13.8753 12.7616L21.3634 5.29137C21.7685 4.88898 22.2529 4.57529 22.7857 4.37035C23.3186 4.16541 23.8883 4.07362 24.4586 4.10088C25.0316 4.12535 25.5928 4.27053 26.1057 4.52702C26.6186 4.78345 27.0716 5.14535 27.4348 5.58899C28.0742 6.40631 28.39 7.43054 28.3219 8.46596C28.2538 9.50144 27.8066 10.4755 27.0658 11.2021L25.6015 12.6664C25.4088 12.8578 25.2558 13.0855 25.1514 13.3363C25.047 13.5871 24.9933 13.856 24.9933 14.1277C24.9933 14.3994 25.047 14.6683 25.1514 14.9191C25.2558 15.1699 25.4088 15.3976 25.6015 15.589C25.9897 15.9754 26.5151 16.1923 27.0628 16.1923C27.6106 16.1923 28.136 15.9754 28.5241 15.589L30.0896 14.0235C31.6156 12.4907 32.4808 10.4213 32.4997 8.2584C32.5186 6.0956 31.6898 4.0113 30.1908 2.45206Z" fill="#6D7992"/>
<path d="M21.5837 10.8985C21.1976 10.8549 20.807 10.9211 20.4568 11.0895C20.1066 11.258 19.8111 11.5217 19.604 11.8506C19.397 12.1794 19.287 12.56 19.2865 12.9486C19.2861 13.3372 19.3953 13.718 19.6015 14.0473C20.1085 14.8377 20.3311 15.7771 20.2326 16.7109C20.1342 17.6447 19.7205 18.517 19.0599 19.1842L11.5717 26.6723C11.1661 27.0739 10.6816 27.3869 10.1488 27.5919C9.61609 27.7967 9.04668 27.889 8.4765 27.8628C7.9034 27.8365 7.34221 27.6899 6.82941 27.4325C6.31667 27.1751 5.86381 26.8127 5.5003 26.3688C4.86053 25.5539 4.5444 24.5313 4.6125 23.4976C4.68059 22.4638 5.12821 21.4915 5.86935 20.7676L7.33364 19.3033C7.71727 18.9127 7.9312 18.3865 7.92888 17.839C7.93054 17.5687 7.87882 17.3008 7.77668 17.0505C7.67453 16.8002 7.52394 16.5726 7.33364 16.3806C6.94102 16.0027 6.41726 15.7916 5.87232 15.7916C5.32738 15.7916 4.80363 16.0027 4.41101 16.3806L2.98244 17.7914C2.18646 18.5967 1.55741 19.5512 1.13145 20.6003C0.705481 21.6493 0.490987 22.7723 0.50029 23.9045C0.498856 24.9846 0.714708 26.0539 1.13499 27.0489C1.55528 28.0439 2.17141 28.9442 2.94673 29.6962C4.50482 31.1874 6.58328 32.0118 8.73989 31.994C10.8965 31.9762 12.9611 31.1177 14.4944 29.6009L21.9825 22.1068C23.3003 20.7722 24.1267 19.0302 24.3267 17.1653C24.5267 15.3003 24.0885 13.4227 23.0837 11.839C22.921 11.5791 22.7014 11.3595 22.4417 11.1966C22.1818 11.0337 21.8885 10.9318 21.5837 10.8985Z" fill="#6D7992"/>
</svg>
