<svg width="21" height="24" viewBox="0 0 21 24" fill="none" xmlns="http://www.w3.org/2000/svg">
<path d="M19.0037 19.2H1.72371C1.08371 19.2 0.523712 18.88 0.203712 18.32C-0.116288 17.76 -0.0362881 17.12 0.283712 16.56L1.16371 15.2C2.60371 13.04 3.32371 10.56 3.32371 8C3.32371 5.04 5.24371 2.32 8.04371 1.36C8.52371 0.48 9.40371 0 10.3637 0C11.3237 0 12.2037 0.48 12.6837 1.36C15.4837 2.32 17.4037 5.04 17.4037 8C17.4037 10.56 18.1237 13.04 19.5637 15.2L20.4437 16.56C20.7637 17.12 20.8437 17.76 20.5237 18.32C20.2837 18.88 19.6437 19.2 19.0037 19.2Z" fill="#6D7992"/>
<path d="M6.44371 20.8C6.84371 22.64 8.44371 24 10.3637 24C12.2837 24 13.8837 22.64 14.2837 20.8H6.44371Z" fill="#6D7992"/>
</svg>
