<svg width="24" height="22" viewBox="0 0 24 22" fill="none" xmlns="http://www.w3.org/2000/svg">
<path d="M12.8 1.05721C12.3429 0.60007 11.6571 0.60007 11.2 1.05721L4.34286 7.91436C3.88571 8.3715 3.88571 9.05721 4.34286 9.51435C4.57143 9.74293 4.85714 9.85721 5.14286 9.85721C5.42857 9.85721 5.71429 9.74293 5.94286 9.51435L12.8 2.65721C13.2571 2.20007 13.2571 1.51436 12.8 1.05721Z" fill="#6D7992"/>
<path d="M19.6571 7.91436L12.8 1.05721C12.3429 0.60007 11.6571 0.60007 11.2 1.05721C10.7429 1.51436 10.7429 2.20007 11.2 2.65721L18.0571 9.51435C18.2857 9.74293 18.5714 9.85721 18.8571 9.85721C19.1429 9.85721 19.4286 9.74293 19.6571 9.51435C20.1143 9.05721 20.1143 8.3715 19.6571 7.91436Z" fill="#6D7992"/>
<path d="M19.6571 21.2858H4.34286C3.77143 21.2858 3.31429 20.8858 3.2 20.3715L1.14286 9.85721H22.8571L20.7429 20.3715C20.6286 20.8858 20.1714 21.2858 19.6571 21.2858Z" fill="#6D7992"/>
<path d="M22.8571 11.0001H1.14286C0.514286 11.0001 0 10.4858 0 9.85721V8.71435C0 8.08578 0.514286 7.5715 1.14286 7.5715H22.8571C23.4857 7.5715 24 8.08578 24 8.71435V9.85721C24 10.4858 23.4857 11.0001 22.8571 11.0001Z" fill="#6D7992"/>
<path d="M15.8857 12.0286L11.3714 16.5429L9.25714 14.3715L8 15.6286L11.3714 19.0001L17.1429 13.2286L15.8857 12.0286Z" fill="#F5F5F5"/>
</svg>
