<svg width="33" height="32" viewBox="0 0 33 32" fill="none" xmlns="http://www.w3.org/2000/svg">
<path d="M27.7 0H5.30001C4.02741 0.00144908 2.80735 0.507628 1.90749 1.40749C1.00763 2.30735 0.501449 3.52741 0.5 4.80001V27.2C0.501449 28.4726 1.00763 29.6926 1.90749 30.5925C2.80735 31.4924 4.02741 31.9986 5.30001 32H27.7C28.9726 31.9986 30.1926 31.4924 31.0925 30.5925C31.9924 29.6926 32.4986 28.4726 32.5 27.2V4.80001C32.4986 3.52741 31.9924 2.30735 31.0925 1.40749C30.1926 0.507628 28.9726 0.00144908 27.7 0ZM5.30001 3.19995H27.7C28.1242 3.20043 28.5309 3.36915 28.8308 3.6691C29.1308 3.96905 29.2995 4.37574 29.3 4.79993V20.6372L23.0314 14.3686C22.7313 14.0686 22.3243 13.9001 21.9 13.9001C21.4756 13.9001 21.0687 14.0686 20.7686 14.3686L12.9 22.2373L8.63136 17.9686C8.33126 17.6686 7.92429 17.5001 7.49995 17.5001C7.07561 17.5001 6.66864 17.6686 6.36853 17.9686L3.69995 20.6372V4.80001C3.70041 4.37579 3.86913 3.96907 4.1691 3.6691C4.46907 3.36913 4.87579 3.20041 5.30001 3.19995ZM27.7 28.8H5.30001C4.87581 28.7996 4.46913 28.6308 4.16918 28.3309C3.86923 28.0309 3.70051 27.6243 3.70003 27.2001V25.1628L7.49999 21.3625L11.7686 25.6312C12.0687 25.9312 12.4757 26.0997 12.9 26.0997C13.3244 26.0997 13.7313 25.9312 14.0314 25.6312L21.9 17.7625L29.3 25.1626V27.1998C29.2996 27.624 29.131 28.0308 28.831 28.3308C28.531 28.6308 28.1243 28.7996 27.7 28.8Z" fill="#6D7992"/>
<path d="M11.7 16C12.6493 16 13.5774 15.7185 14.3667 15.1911C15.1561 14.6636 15.7713 13.914 16.1346 13.0369C16.4979 12.1598 16.593 11.1947 16.4078 10.2636C16.2226 9.33245 15.7654 8.47717 15.0941 7.80587C14.4228 7.13458 13.5675 6.67742 12.6364 6.49221C11.7053 6.307 10.7402 6.40206 9.86311 6.76536C8.98602 7.12866 8.23636 7.74389 7.70893 8.53325C7.1815 9.32261 6.89999 10.2506 6.89999 11.2C6.90143 12.4726 7.40761 13.6926 8.30748 14.5925C9.20734 15.4924 10.4274 15.9985 11.7 16ZM11.7 9.60001C12.0164 9.60001 12.3258 9.69385 12.5889 9.86966C12.852 10.0455 13.0571 10.2953 13.1782 10.5877C13.2993 10.8801 13.331 11.2018 13.2692 11.5121C13.2075 11.8225 13.0551 12.1076 12.8313 12.3313C12.6076 12.5551 12.3225 12.7075 12.0121 12.7692C11.7018 12.831 11.3801 12.7993 11.0877 12.6782C10.7954 12.5571 10.5455 12.352 10.3697 12.0889C10.1939 11.8258 10.1 11.5164 10.1 11.2C10.1005 10.7758 10.2692 10.3691 10.5692 10.0692C10.8691 9.76921 11.2758 9.60049 11.7 9.60001Z" fill="#6D7992"/>
</svg>
