<svg width="24" height="24" viewBox="0 0 24 24" fill="none" xmlns="http://www.w3.org/2000/svg">
<path d="M14.184 16.392C13.9611 16.6151 13.6964 16.7922 13.4051 16.9129C13.1137 17.0337 12.8014 17.0959 12.486 17.0959C12.1706 17.0959 11.8583 17.0337 11.5669 16.9129C11.2756 16.7922 11.0109 16.6151 10.788 16.392L8.088 13.692C7.86486 13.4691 7.68784 13.2044 7.56706 12.9131C7.44628 12.6217 7.38411 12.3094 7.38411 11.994C7.38411 11.6786 7.44628 11.3663 7.56706 11.0749C7.68784 10.7836 7.86486 10.5189 8.088 10.296L10.8 7.608C11.1557 7.26823 11.6072 7.04597 12.0934 6.97129C12.5796 6.89662 13.077 6.97314 13.5183 7.1905C13.9595 7.40786 14.3234 7.75556 14.5605 8.18653C14.7976 8.6175 14.8966 9.11092 14.844 9.6H17.244V4.8C17.244 3.52696 16.7383 2.30606 15.8381 1.40589C14.9379 0.505713 13.717 0 12.444 0H4.8C3.52696 0 2.30606 0.505713 1.40589 1.40589C0.505713 2.30606 0 3.52696 0 4.8V19.2C0 20.473 0.505713 21.6939 1.40589 22.5941C2.30606 23.4943 3.52696 24 4.8 24H12.504C13.1343 24 13.7585 23.8758 14.3409 23.6346C14.9232 23.3934 15.4524 23.0398 15.8981 22.5941C16.3438 22.1484 16.6974 21.6192 16.9386 21.0369C17.1798 20.4545 17.304 19.8303 17.304 19.2V14.4H14.904C14.9444 14.765 14.9005 15.1344 14.7756 15.4797C14.6508 15.8251 14.4484 16.1372 14.184 16.392Z" fill="#6D7992"/>
<path d="M22.8 10.8H12.672L13.32 10.152C13.5166 9.92244 13.6193 9.62715 13.6077 9.32514C13.596 9.02312 13.4708 8.73664 13.2571 8.52292C13.0434 8.30921 12.7569 8.18401 12.4549 8.17235C12.1529 8.16068 11.8576 8.26341 11.628 8.46L8.94 11.148C8.7165 11.3728 8.59105 11.677 8.59105 11.994C8.59105 12.311 8.7165 12.6152 8.94 12.84L11.64 15.54C11.8696 15.7366 12.1649 15.8393 12.4669 15.8277C12.7689 15.816 13.0554 15.6908 13.2691 15.4771C13.4828 15.2634 13.608 14.9769 13.6197 14.6749C13.6313 14.3729 13.5286 14.0776 13.332 13.848L12.696 13.2H22.8C23.1183 13.2 23.4235 13.0736 23.6485 12.8485C23.8736 12.6235 24 12.3183 24 12C24 11.6817 23.8736 11.3765 23.6485 11.1515C23.4235 10.9264 23.1183 10.8 22.8 10.8Z" fill="#6D7992"/>
</svg>
