<svg width="24" height="24" viewBox="0 0 24 24" fill="none" xmlns="http://www.w3.org/2000/svg">
<path d="M12.8993 0.000431059C13.5938 -0.0115687 14.2518 0.227227 14.7431 0.684419C15.2369 1.12721 15.5008 1.7404 15.5008 2.38839C15.5008 3.70836 16.65 4.77754 18.0783 4.77754C18.5191 4.77754 18.9611 4.65635 19.3539 4.45235C20.5776 3.82716 22.1057 4.22435 22.8003 5.34033L23.6603 6.74431C23.875 7.1043 24 7.5123 24 7.93229C24 8.78427 23.5087 9.57746 22.7131 9.99625C22.3204 10.2002 21.992 10.5122 21.766 10.8734C21.0954 12.0002 21.5134 13.427 22.7131 14.0774C23.9242 14.7362 24.341 16.1773 23.6603 17.3161L22.8003 18.6733C22.3456 19.4161 21.4995 19.8733 20.5902 19.8733C20.1356 19.8733 19.6809 19.7641 19.3033 19.5481C18.898 19.3441 18.4572 19.2241 18.0139 19.2241C17.332 19.2241 16.6753 19.4773 16.1966 19.9321C15.7029 20.3773 15.4377 20.9881 15.4377 21.624C15.4377 22.932 14.2897 24 12.8614 24H11.1325C10.4493 24 9.80519 23.736 9.33792 23.292C8.85803 22.836 8.60671 22.236 8.60671 21.612C8.60671 20.2921 7.46886 19.2241 6.04306 19.2241C5.57453 19.2241 5.11989 19.3441 4.7284 19.5733C4.13484 19.8841 3.42763 19.9681 2.77093 19.8121C2.11423 19.6441 1.54593 19.2361 1.20495 18.6961L0.397971 17.3401C0.017843 16.7773 -0.0958165 16.1041 0.0822501 15.4682C0.257791 14.8322 0.713692 14.2922 1.33124 13.9682C1.724 13.7642 2.05109 13.4642 2.2784 13.0922C2.93637 11.9642 2.51835 10.5482 1.33124 9.88825C0.131503 9.24026 -0.285249 7.81229 0.397971 6.68431L1.20495 5.34033C1.54593 4.77754 2.11423 4.36835 2.78356 4.20036C3.45415 4.03236 4.1601 4.12716 4.75366 4.45235C5.15778 4.65635 5.59979 4.76435 6.04306 4.76435C6.72502 4.76435 7.38045 4.51235 7.86035 4.06836C8.34025 3.62437 8.60671 3.01238 8.60671 2.38839C8.60671 1.06841 9.75468 0.000431059 11.1817 0.000431059H12.8993ZM13.4057 8.97747C12.0796 8.46028 10.5503 8.73627 9.52736 9.68426C8.51705 10.6202 8.20133 12.0482 8.757 13.2734C9.3013 14.5082 10.5882 15.3122 12.0279 15.3122H12.0418C12.9889 15.3242 13.8729 14.9774 14.541 14.3522C15.2103 13.7402 15.5892 12.9002 15.5892 12.0242C15.6018 10.6922 14.7304 9.48026 13.4057 8.97747Z" fill="#6D7992"/>
</svg>
