<svg width="33" height="36" viewBox="0 0 33 36" fill="none" xmlns="http://www.w3.org/2000/svg">
<path fill-rule="evenodd" clip-rule="evenodd" d="M0.5 32.8572C0.5 34.1143 1.52857 35.1429 2.78571 35.1429H30.2143C31.4714 35.1429 32.5 34.1143 32.5 32.8572C32.5 31.6 31.4714 30.5715 30.2143 30.5715H2.78571C1.52857 30.5715 0.5 31.6 0.5 32.8572ZM10.7857 20.9715H22.2143L23.7229 24.6286C24.0657 25.4515 24.8657 26 25.7571 26C27.3343 26 28.3857 24.3772 27.7686 22.9372L18.9 2.43432C18.4886 1.47432 17.5514 0.857178 16.5 0.857178C15.4486 0.857178 14.5114 1.47432 14.1 2.43432L5.23143 22.9372C4.61429 24.3772 5.68857 26 7.26571 26C8.15714 26 8.95714 25.4515 9.3 24.6286L10.7857 20.9715ZM16.5 5.38289L20.7743 16.8572H12.2257L16.5 5.38289Z" fill="#6D7992"/>
</svg>
