<svg width="21" height="20" viewBox="0 0 21 20" fill="none" xmlns="http://www.w3.org/2000/svg">
<path d="M6.21429 10.7143C6.42857 15.8572 8.5 19.2857 10.5 19.2857C12.5 19.2857 14.5714 15.8572 14.7857 10.7143H6.21429Z" fill="#F5F5F5"/>
<path d="M10.5 0.714321C8.5 0.714321 6.42857 4.14289 6.21429 9.28575H14.7857C14.5714 4.14289 12.5 0.714321 10.5 0.714321Z" fill="#F5F5F5"/>
<path d="M16.2143 9.28575H20.5C20.1429 4.92861 17.0714 1.35718 13 0.357178C14.7857 1.92861 16.0714 5.28575 16.2143 9.28575Z" fill="#F5F5F5"/>
<path d="M4.78571 10.7143H0.5C0.785714 15.0715 3.85714 18.6429 8 19.6429C6.21429 18.0715 4.92857 14.7143 4.78571 10.7143Z" fill="#F5F5F5"/>
<path d="M16.2143 10.7143C16.0714 14.7143 14.7857 18.0715 13 19.6429C17.0714 18.5715 20.1429 15 20.5 10.7143H16.2143Z" fill="#F5F5F5"/>
<path d="M4.78571 9.28575C4.92857 5.28575 6.21429 1.92861 8 0.357178C3.92857 1.35718 0.857143 4.92861 0.571429 9.28575H4.78571Z" fill="#F5F5F5"/>
</svg>
